<mxfile host="app.diagrams.net" modified="2021-09-17T12:10:09.315Z" agent="5.0 (Macintosh; Intel Mac OS X 10_15_7) AppleWebKit/537.36 (KHTML, like Gecko) Chrome/93.0.4577.63 Safari/537.36" etag="h6zIAgVxhraTjvHt-e31" version="15.2.9" type="github">
  <diagram id="3_sE-vV-cq98WUEVYZYl" name="Page-1">
    <mxGraphModel dx="2022" dy="1129" grid="1" gridSize="10" guides="1" tooltips="1" connect="1" arrows="1" fold="1" page="1" pageScale="1" pageWidth="827" pageHeight="1169" math="0" shadow="0">
      <root>
        <mxCell id="0" />
        <mxCell id="1" parent="0" />
        <mxCell id="PMKHWleo4ZkFc0uf_kHP-164" value="" style="rounded=0;whiteSpace=wrap;html=1;dashed=1;strokeColor=none;fillColor=#f5f5f5;fontColor=#333333;" vertex="1" parent="1">
          <mxGeometry x="575.5" y="700" width="870" height="370" as="geometry" />
        </mxCell>
        <mxCell id="PMKHWleo4ZkFc0uf_kHP-162" style="edgeStyle=none;rounded=0;orthogonalLoop=1;jettySize=auto;html=1;strokeWidth=4;" edge="1" parent="1" source="PMKHWleo4ZkFc0uf_kHP-135" target="PMKHWleo4ZkFc0uf_kHP-136">
          <mxGeometry relative="1" as="geometry" />
        </mxCell>
        <mxCell id="PMKHWleo4ZkFc0uf_kHP-135" value="" style="rounded=0;whiteSpace=wrap;html=1;dashed=1;strokeColor=none;fillColor=#f5f5f5;fontColor=#333333;" vertex="1" parent="1">
          <mxGeometry x="600" y="2170" width="870" height="370" as="geometry" />
        </mxCell>
        <mxCell id="PMKHWleo4ZkFc0uf_kHP-132" value="" style="rounded=0;whiteSpace=wrap;html=1;dashed=1;strokeColor=none;fillColor=#f5f5f5;fontColor=#333333;" vertex="1" parent="1">
          <mxGeometry x="580" y="1580" width="870" height="370" as="geometry" />
        </mxCell>
        <mxCell id="PMKHWleo4ZkFc0uf_kHP-133" style="edgeStyle=none;rounded=0;orthogonalLoop=1;jettySize=auto;html=1;strokeWidth=4;" edge="1" parent="1" source="PMKHWleo4ZkFc0uf_kHP-131" target="PMKHWleo4ZkFc0uf_kHP-132">
          <mxGeometry relative="1" as="geometry" />
        </mxCell>
        <mxCell id="PMKHWleo4ZkFc0uf_kHP-131" value="" style="rounded=0;whiteSpace=wrap;html=1;dashed=1;strokeColor=none;fillColor=#f5f5f5;fontColor=#333333;" vertex="1" parent="1">
          <mxGeometry x="580" y="1150" width="870" height="370" as="geometry" />
        </mxCell>
        <mxCell id="PMKHWleo4ZkFc0uf_kHP-1" value="&lt;b&gt;&lt;font style=&quot;font-size: 18px&quot;&gt;虚拟父节点：&lt;/font&gt;&lt;/b&gt;" style="text;html=1;strokeColor=none;fillColor=none;align=left;verticalAlign=middle;whiteSpace=wrap;rounded=0;" vertex="1" parent="1">
          <mxGeometry x="30" y="30" width="180" height="30" as="geometry" />
        </mxCell>
        <mxCell id="PMKHWleo4ZkFc0uf_kHP-2" value="" style="ellipse;whiteSpace=wrap;html=1;aspect=fixed;fillColor=#1ba1e2;strokeColor=#006EAF;fontColor=#ffffff;" vertex="1" parent="1">
          <mxGeometry x="50" y="130" width="50" height="50" as="geometry" />
        </mxCell>
        <mxCell id="PMKHWleo4ZkFc0uf_kHP-3" value="" style="ellipse;whiteSpace=wrap;html=1;aspect=fixed;fillColor=#b0e3e6;strokeColor=#0e8088;dashed=1;" vertex="1" parent="1">
          <mxGeometry x="360" y="130" width="50" height="50" as="geometry" />
        </mxCell>
        <mxCell id="PMKHWleo4ZkFc0uf_kHP-4" value="&lt;font style=&quot;font-size: 14px&quot;&gt;&lt;b&gt;=&amp;gt; 代表实体节点&lt;/b&gt;&lt;/font&gt;" style="text;html=1;strokeColor=none;fillColor=none;align=left;verticalAlign=middle;whiteSpace=wrap;rounded=0;" vertex="1" parent="1">
          <mxGeometry x="110" y="145" width="150" height="20" as="geometry" />
        </mxCell>
        <mxCell id="PMKHWleo4ZkFc0uf_kHP-5" value="&lt;font style=&quot;font-size: 14px&quot;&gt;&lt;b&gt;=&amp;gt; 代表虚拟父节点&lt;/b&gt;&lt;/font&gt;" style="text;html=1;strokeColor=none;fillColor=none;align=left;verticalAlign=middle;whiteSpace=wrap;rounded=0;" vertex="1" parent="1">
          <mxGeometry x="420" y="145" width="150" height="20" as="geometry" />
        </mxCell>
        <mxCell id="PMKHWleo4ZkFc0uf_kHP-31" style="edgeStyle=none;rounded=0;orthogonalLoop=1;jettySize=auto;html=1;dashed=1;" edge="1" parent="1" source="PMKHWleo4ZkFc0uf_kHP-6" target="PMKHWleo4ZkFc0uf_kHP-29">
          <mxGeometry relative="1" as="geometry" />
        </mxCell>
        <mxCell id="PMKHWleo4ZkFc0uf_kHP-6" value="Content" style="ellipse;whiteSpace=wrap;html=1;aspect=fixed;fillColor=#1ba1e2;strokeColor=#006EAF;fontColor=#ffffff;" vertex="1" parent="1">
          <mxGeometry x="1225.25" y="790" width="50" height="50" as="geometry" />
        </mxCell>
        <mxCell id="PMKHWleo4ZkFc0uf_kHP-8" value="&lt;b&gt;&lt;font style=&quot;font-size: 18px&quot;&gt;虚拟父节点 - &lt;/font&gt;&lt;font style=&quot;font-size: 14px&quot;&gt;常见使用场景：&lt;/font&gt;&lt;/b&gt;" style="text;html=1;strokeColor=none;fillColor=none;align=left;verticalAlign=middle;whiteSpace=wrap;rounded=0;" vertex="1" parent="1">
          <mxGeometry x="30" y="370" width="270" height="30" as="geometry" />
        </mxCell>
        <mxCell id="PMKHWleo4ZkFc0uf_kHP-9" value="" style="ellipse;whiteSpace=wrap;html=1;aspect=fixed;fillColor=#bac8d3;strokeColor=#23445d;" vertex="1" parent="1">
          <mxGeometry x="50" y="250" width="50" height="50" as="geometry" />
        </mxCell>
        <mxCell id="PMKHWleo4ZkFc0uf_kHP-10" value="&lt;font style=&quot;font-size: 14px&quot;&gt;&lt;b&gt;=&amp;gt; 代表非非节点view&lt;/b&gt;&lt;/font&gt;" style="text;html=1;strokeColor=none;fillColor=none;align=left;verticalAlign=middle;whiteSpace=wrap;rounded=0;" vertex="1" parent="1">
          <mxGeometry x="110" y="265" width="170" height="20" as="geometry" />
        </mxCell>
        <mxCell id="PMKHWleo4ZkFc0uf_kHP-30" style="rounded=0;orthogonalLoop=1;jettySize=auto;html=1;dashed=1;" edge="1" parent="1" source="PMKHWleo4ZkFc0uf_kHP-11" target="PMKHWleo4ZkFc0uf_kHP-29">
          <mxGeometry relative="1" as="geometry" />
        </mxCell>
        <mxCell id="PMKHWleo4ZkFc0uf_kHP-11" value="Title" style="ellipse;whiteSpace=wrap;html=1;aspect=fixed;fillColor=#1ba1e2;strokeColor=#006EAF;fontColor=#ffffff;" vertex="1" parent="1">
          <mxGeometry x="821.75" y="800" width="50" height="50" as="geometry" />
        </mxCell>
        <mxCell id="PMKHWleo4ZkFc0uf_kHP-12" value="" style="rounded=0;whiteSpace=wrap;html=1;fillColor=#d0cee2;strokeColor=#56517e;" vertex="1" parent="1">
          <mxGeometry x="414" y="410" width="336" height="40" as="geometry" />
        </mxCell>
        <mxCell id="PMKHWleo4ZkFc0uf_kHP-13" value="" style="rounded=0;whiteSpace=wrap;html=1;fillColor=#d0cee2;strokeColor=#56517e;" vertex="1" parent="1">
          <mxGeometry x="414" y="460" width="336" height="200" as="geometry" />
        </mxCell>
        <mxCell id="PMKHWleo4ZkFc0uf_kHP-14" value="这是资源内容区域 Content：" style="text;html=1;strokeColor=none;fillColor=none;align=left;verticalAlign=middle;whiteSpace=wrap;rounded=0;" vertex="1" parent="1">
          <mxGeometry x="414" y="460" width="186" height="20" as="geometry" />
        </mxCell>
        <mxCell id="PMKHWleo4ZkFc0uf_kHP-15" value="这是一个Title:" style="text;html=1;strokeColor=none;fillColor=none;align=left;verticalAlign=middle;whiteSpace=wrap;rounded=0;" vertex="1" parent="1">
          <mxGeometry x="414" y="410" width="86" height="20" as="geometry" />
        </mxCell>
        <mxCell id="PMKHWleo4ZkFc0uf_kHP-16" value="Item 0" style="rounded=0;whiteSpace=wrap;html=1;" vertex="1" parent="1">
          <mxGeometry x="500" y="427" width="40" height="20" as="geometry" />
        </mxCell>
        <mxCell id="PMKHWleo4ZkFc0uf_kHP-17" value="Item 1" style="rounded=0;whiteSpace=wrap;html=1;" vertex="1" parent="1">
          <mxGeometry x="562" y="427" width="40" height="20" as="geometry" />
        </mxCell>
        <mxCell id="PMKHWleo4ZkFc0uf_kHP-18" value="moreBtn" style="rounded=0;whiteSpace=wrap;html=1;" vertex="1" parent="1">
          <mxGeometry x="670" y="420" width="70" height="20" as="geometry" />
        </mxCell>
        <mxCell id="PMKHWleo4ZkFc0uf_kHP-20" value="" style="rounded=0;whiteSpace=wrap;html=1;fillColor=#fad9d5;strokeColor=#ae4132;" vertex="1" parent="1">
          <mxGeometry x="420" y="490" width="560" height="150" as="geometry" />
        </mxCell>
        <mxCell id="PMKHWleo4ZkFc0uf_kHP-21" value="这是一个横向的ScrollView：" style="text;html=1;strokeColor=none;fillColor=none;align=left;verticalAlign=middle;whiteSpace=wrap;rounded=0;" vertex="1" parent="1">
          <mxGeometry x="820" y="490" width="160" height="20" as="geometry" />
        </mxCell>
        <mxCell id="PMKHWleo4ZkFc0uf_kHP-23" value="Resource 0" style="rounded=0;whiteSpace=wrap;html=1;dashed=1;strokeColor=#0e8088;fillColor=#b0e3e6;" vertex="1" parent="1">
          <mxGeometry x="430" y="505" width="120" height="110" as="geometry" />
        </mxCell>
        <mxCell id="PMKHWleo4ZkFc0uf_kHP-24" value="Resource 1" style="rounded=0;whiteSpace=wrap;html=1;dashed=1;strokeColor=#0e8088;fillColor=#b0e3e6;" vertex="1" parent="1">
          <mxGeometry x="570" y="510" width="120" height="110" as="geometry" />
        </mxCell>
        <mxCell id="PMKHWleo4ZkFc0uf_kHP-25" value="Resource 2" style="rounded=0;whiteSpace=wrap;html=1;dashed=1;strokeColor=#0e8088;fillColor=#b0e3e6;" vertex="1" parent="1">
          <mxGeometry x="707" y="510" width="120" height="110" as="geometry" />
        </mxCell>
        <mxCell id="PMKHWleo4ZkFc0uf_kHP-26" value="Resource 3&lt;br&gt;(不可见)" style="rounded=0;whiteSpace=wrap;html=1;dashed=1;strokeColor=#0e8088;fillColor=#C3FCFF;" vertex="1" parent="1">
          <mxGeometry x="840" y="510" width="120" height="110" as="geometry" />
        </mxCell>
        <mxCell id="PMKHWleo4ZkFc0uf_kHP-28" value="&lt;h1&gt;需要虚拟父节点:&amp;nbsp;&lt;/h1&gt;&lt;p&gt;1. Title &amp;amp; Content 没有共同的父view&lt;/p&gt;&lt;p&gt;2. 但是埋点需要把这俩作为一个整体，称为 &quot;module&quot;&lt;/p&gt;" style="text;html=1;strokeColor=default;fillColor=none;spacing=5;spacingTop=-20;whiteSpace=wrap;overflow=hidden;rounded=0;dashed=1;" vertex="1" parent="1">
          <mxGeometry x="30" y="410" width="350" height="110" as="geometry" />
        </mxCell>
        <mxCell id="PMKHWleo4ZkFc0uf_kHP-29" value="虚拟" style="ellipse;whiteSpace=wrap;html=1;aspect=fixed;fillColor=#b0e3e6;strokeColor=#0e8088;dashed=1;" vertex="1" parent="1">
          <mxGeometry x="1026.75" y="730" width="50" height="50" as="geometry" />
        </mxCell>
        <mxCell id="PMKHWleo4ZkFc0uf_kHP-35" style="edgeStyle=none;rounded=0;orthogonalLoop=1;jettySize=auto;html=1;" edge="1" parent="1" source="PMKHWleo4ZkFc0uf_kHP-32" target="PMKHWleo4ZkFc0uf_kHP-11">
          <mxGeometry relative="1" as="geometry" />
        </mxCell>
        <mxCell id="PMKHWleo4ZkFc0uf_kHP-32" value="item 0" style="ellipse;whiteSpace=wrap;html=1;aspect=fixed;fillColor=#1ba1e2;strokeColor=#006EAF;fontColor=#ffffff;" vertex="1" parent="1">
          <mxGeometry x="711.75" y="900" width="50" height="50" as="geometry" />
        </mxCell>
        <mxCell id="PMKHWleo4ZkFc0uf_kHP-36" style="edgeStyle=none;rounded=0;orthogonalLoop=1;jettySize=auto;html=1;" edge="1" parent="1" source="PMKHWleo4ZkFc0uf_kHP-33" target="PMKHWleo4ZkFc0uf_kHP-11">
          <mxGeometry relative="1" as="geometry" />
        </mxCell>
        <mxCell id="PMKHWleo4ZkFc0uf_kHP-33" value="item 1" style="ellipse;whiteSpace=wrap;html=1;aspect=fixed;fillColor=#1ba1e2;strokeColor=#006EAF;fontColor=#ffffff;" vertex="1" parent="1">
          <mxGeometry x="821.75" y="900" width="50" height="50" as="geometry" />
        </mxCell>
        <mxCell id="PMKHWleo4ZkFc0uf_kHP-37" style="edgeStyle=none;rounded=0;orthogonalLoop=1;jettySize=auto;html=1;" edge="1" parent="1" source="PMKHWleo4ZkFc0uf_kHP-34" target="PMKHWleo4ZkFc0uf_kHP-11">
          <mxGeometry relative="1" as="geometry" />
        </mxCell>
        <mxCell id="PMKHWleo4ZkFc0uf_kHP-34" value="moreBtn" style="ellipse;whiteSpace=wrap;html=1;aspect=fixed;fillColor=#1ba1e2;strokeColor=#006EAF;fontColor=#ffffff;" vertex="1" parent="1">
          <mxGeometry x="941.75" y="900" width="50" height="50" as="geometry" />
        </mxCell>
        <mxCell id="PMKHWleo4ZkFc0uf_kHP-42" style="edgeStyle=none;rounded=0;orthogonalLoop=1;jettySize=auto;html=1;" edge="1" parent="1" source="PMKHWleo4ZkFc0uf_kHP-38" target="PMKHWleo4ZkFc0uf_kHP-6">
          <mxGeometry relative="1" as="geometry" />
        </mxCell>
        <mxCell id="PMKHWleo4ZkFc0uf_kHP-38" value="ScrollView" style="ellipse;whiteSpace=wrap;html=1;aspect=fixed;fillColor=#1ba1e2;strokeColor=#006EAF;fontColor=#ffffff;" vertex="1" parent="1">
          <mxGeometry x="1225.25" y="890" width="50" height="50" as="geometry" />
        </mxCell>
        <mxCell id="PMKHWleo4ZkFc0uf_kHP-43" style="edgeStyle=none;rounded=0;orthogonalLoop=1;jettySize=auto;html=1;" edge="1" parent="1" source="PMKHWleo4ZkFc0uf_kHP-39" target="PMKHWleo4ZkFc0uf_kHP-38">
          <mxGeometry relative="1" as="geometry" />
        </mxCell>
        <mxCell id="PMKHWleo4ZkFc0uf_kHP-39" value="R_0" style="ellipse;whiteSpace=wrap;html=1;aspect=fixed;fillColor=#1ba1e2;strokeColor=#006EAF;fontColor=#ffffff;" vertex="1" parent="1">
          <mxGeometry x="1095.25" y="980" width="50" height="50" as="geometry" />
        </mxCell>
        <mxCell id="PMKHWleo4ZkFc0uf_kHP-44" style="edgeStyle=none;rounded=0;orthogonalLoop=1;jettySize=auto;html=1;" edge="1" parent="1" source="PMKHWleo4ZkFc0uf_kHP-40" target="PMKHWleo4ZkFc0uf_kHP-38">
          <mxGeometry relative="1" as="geometry" />
        </mxCell>
        <mxCell id="PMKHWleo4ZkFc0uf_kHP-40" value="R_1" style="ellipse;whiteSpace=wrap;html=1;aspect=fixed;fillColor=#1ba1e2;strokeColor=#006EAF;fontColor=#ffffff;" vertex="1" parent="1">
          <mxGeometry x="1225.25" y="980" width="50" height="50" as="geometry" />
        </mxCell>
        <mxCell id="PMKHWleo4ZkFc0uf_kHP-45" style="edgeStyle=none;rounded=0;orthogonalLoop=1;jettySize=auto;html=1;" edge="1" parent="1" source="PMKHWleo4ZkFc0uf_kHP-41" target="PMKHWleo4ZkFc0uf_kHP-38">
          <mxGeometry relative="1" as="geometry" />
        </mxCell>
        <mxCell id="PMKHWleo4ZkFc0uf_kHP-41" value="R_2" style="ellipse;whiteSpace=wrap;html=1;aspect=fixed;fillColor=#1ba1e2;strokeColor=#006EAF;fontColor=#ffffff;" vertex="1" parent="1">
          <mxGeometry x="1352.25" y="980" width="50" height="50" as="geometry" />
        </mxCell>
        <mxCell id="PMKHWleo4ZkFc0uf_kHP-46" value="&lt;h1&gt;设置虚拟父节点:&amp;nbsp;&lt;/h1&gt;&lt;p&gt;1. 给 Title + Content 节点，同时设置&lt;b&gt;&lt;font color=&quot;#ff0080&quot;&gt;同一个父节点&lt;/font&gt;&lt;/b&gt;&lt;/p&gt;&lt;p&gt;2. 同一个虚拟父节点: &lt;font color=&quot;#ff0080&quot;&gt;该节点的 identifier 是相等的&lt;/font&gt;&lt;/p&gt;" style="text;html=1;strokeColor=default;fillColor=none;spacing=5;spacingTop=-20;whiteSpace=wrap;overflow=hidden;rounded=0;dashed=1;" vertex="1" parent="1">
          <mxGeometry x="30" y="720" width="350" height="100" as="geometry" />
        </mxCell>
        <mxCell id="PMKHWleo4ZkFc0uf_kHP-47" style="edgeStyle=none;rounded=0;orthogonalLoop=1;jettySize=auto;html=1;dashed=1;" edge="1" parent="1" source="PMKHWleo4ZkFc0uf_kHP-48" target="PMKHWleo4ZkFc0uf_kHP-51">
          <mxGeometry relative="1" as="geometry" />
        </mxCell>
        <mxCell id="PMKHWleo4ZkFc0uf_kHP-48" value="Content" style="ellipse;whiteSpace=wrap;html=1;aspect=fixed;fillColor=#1ba1e2;strokeColor=#006EAF;fontColor=#ffffff;" vertex="1" parent="1">
          <mxGeometry x="1222" y="1239" width="50" height="50" as="geometry" />
        </mxCell>
        <mxCell id="PMKHWleo4ZkFc0uf_kHP-49" style="rounded=0;orthogonalLoop=1;jettySize=auto;html=1;dashed=1;startArrow=none;" edge="1" parent="1" source="PMKHWleo4ZkFc0uf_kHP-66" target="PMKHWleo4ZkFc0uf_kHP-51">
          <mxGeometry relative="1" as="geometry" />
        </mxCell>
        <mxCell id="PMKHWleo4ZkFc0uf_kHP-51" value="虚拟" style="ellipse;whiteSpace=wrap;html=1;aspect=fixed;fillColor=#b0e3e6;strokeColor=#0e8088;dashed=1;" vertex="1" parent="1">
          <mxGeometry x="1032" y="1169" width="50" height="50" as="geometry" />
        </mxCell>
        <mxCell id="PMKHWleo4ZkFc0uf_kHP-52" style="edgeStyle=none;rounded=0;orthogonalLoop=1;jettySize=auto;html=1;startArrow=none;" edge="1" parent="1" source="PMKHWleo4ZkFc0uf_kHP-93" target="PMKHWleo4ZkFc0uf_kHP-69">
          <mxGeometry relative="1" as="geometry">
            <mxPoint x="798.5014981650797" y="1380.816819849928" as="targetPoint" />
          </mxGeometry>
        </mxCell>
        <mxCell id="PMKHWleo4ZkFc0uf_kHP-53" value="item 0" style="ellipse;whiteSpace=wrap;html=1;aspect=fixed;fillColor=#1ba1e2;strokeColor=#006EAF;fontColor=#ffffff;" vertex="1" parent="1">
          <mxGeometry x="602" y="1409" width="50" height="50" as="geometry" />
        </mxCell>
        <mxCell id="PMKHWleo4ZkFc0uf_kHP-54" style="edgeStyle=none;rounded=0;orthogonalLoop=1;jettySize=auto;html=1;" edge="1" parent="1" source="PMKHWleo4ZkFc0uf_kHP-55" target="PMKHWleo4ZkFc0uf_kHP-69">
          <mxGeometry relative="1" as="geometry">
            <mxPoint x="817" y="1389" as="targetPoint" />
          </mxGeometry>
        </mxCell>
        <mxCell id="PMKHWleo4ZkFc0uf_kHP-55" value="item 1" style="ellipse;whiteSpace=wrap;html=1;aspect=fixed;fillColor=#1ba1e2;strokeColor=#006EAF;fontColor=#ffffff;" vertex="1" parent="1">
          <mxGeometry x="792" y="1409" width="50" height="50" as="geometry" />
        </mxCell>
        <mxCell id="PMKHWleo4ZkFc0uf_kHP-56" style="edgeStyle=none;rounded=0;orthogonalLoop=1;jettySize=auto;html=1;" edge="1" parent="1" source="PMKHWleo4ZkFc0uf_kHP-57" target="PMKHWleo4ZkFc0uf_kHP-69">
          <mxGeometry relative="1" as="geometry">
            <mxPoint x="836.2055319899091" y="1380.0046099915908" as="targetPoint" />
          </mxGeometry>
        </mxCell>
        <mxCell id="PMKHWleo4ZkFc0uf_kHP-57" value="moreBtn" style="ellipse;whiteSpace=wrap;html=1;aspect=fixed;fillColor=#1ba1e2;strokeColor=#006EAF;fontColor=#ffffff;" vertex="1" parent="1">
          <mxGeometry x="912" y="1409" width="50" height="50" as="geometry" />
        </mxCell>
        <mxCell id="PMKHWleo4ZkFc0uf_kHP-58" style="edgeStyle=none;rounded=0;orthogonalLoop=1;jettySize=auto;html=1;" edge="1" parent="1" source="PMKHWleo4ZkFc0uf_kHP-59" target="PMKHWleo4ZkFc0uf_kHP-48">
          <mxGeometry relative="1" as="geometry" />
        </mxCell>
        <mxCell id="PMKHWleo4ZkFc0uf_kHP-59" value="ScrollView" style="ellipse;whiteSpace=wrap;html=1;aspect=fixed;fillColor=#1ba1e2;strokeColor=#006EAF;fontColor=#ffffff;" vertex="1" parent="1">
          <mxGeometry x="1222" y="1339" width="50" height="50" as="geometry" />
        </mxCell>
        <mxCell id="PMKHWleo4ZkFc0uf_kHP-60" style="edgeStyle=none;rounded=0;orthogonalLoop=1;jettySize=auto;html=1;" edge="1" parent="1" source="PMKHWleo4ZkFc0uf_kHP-61" target="PMKHWleo4ZkFc0uf_kHP-59">
          <mxGeometry relative="1" as="geometry" />
        </mxCell>
        <mxCell id="PMKHWleo4ZkFc0uf_kHP-61" value="R_0" style="ellipse;whiteSpace=wrap;html=1;aspect=fixed;fillColor=#1ba1e2;strokeColor=#006EAF;fontColor=#ffffff;" vertex="1" parent="1">
          <mxGeometry x="1092" y="1429" width="50" height="50" as="geometry" />
        </mxCell>
        <mxCell id="PMKHWleo4ZkFc0uf_kHP-62" style="edgeStyle=none;rounded=0;orthogonalLoop=1;jettySize=auto;html=1;" edge="1" parent="1" source="PMKHWleo4ZkFc0uf_kHP-63" target="PMKHWleo4ZkFc0uf_kHP-59">
          <mxGeometry relative="1" as="geometry" />
        </mxCell>
        <mxCell id="PMKHWleo4ZkFc0uf_kHP-63" value="R_1" style="ellipse;whiteSpace=wrap;html=1;aspect=fixed;fillColor=#1ba1e2;strokeColor=#006EAF;fontColor=#ffffff;" vertex="1" parent="1">
          <mxGeometry x="1222" y="1429" width="50" height="50" as="geometry" />
        </mxCell>
        <mxCell id="PMKHWleo4ZkFc0uf_kHP-64" style="edgeStyle=none;rounded=0;orthogonalLoop=1;jettySize=auto;html=1;" edge="1" parent="1" source="PMKHWleo4ZkFc0uf_kHP-65" target="PMKHWleo4ZkFc0uf_kHP-59">
          <mxGeometry relative="1" as="geometry" />
        </mxCell>
        <mxCell id="PMKHWleo4ZkFc0uf_kHP-65" value="R_2" style="ellipse;whiteSpace=wrap;html=1;aspect=fixed;fillColor=#1ba1e2;strokeColor=#006EAF;fontColor=#ffffff;" vertex="1" parent="1">
          <mxGeometry x="1349" y="1429" width="50" height="50" as="geometry" />
        </mxCell>
        <mxCell id="PMKHWleo4ZkFc0uf_kHP-66" value="非节点 a" style="ellipse;whiteSpace=wrap;html=1;aspect=fixed;fillColor=#bac8d3;strokeColor=#23445d;" vertex="1" parent="1">
          <mxGeometry x="892" y="1239" width="50" height="50" as="geometry" />
        </mxCell>
        <mxCell id="PMKHWleo4ZkFc0uf_kHP-67" value="" style="rounded=0;orthogonalLoop=1;jettySize=auto;html=1;dashed=1;endArrow=none;startArrow=none;" edge="1" parent="1" source="PMKHWleo4ZkFc0uf_kHP-69" target="PMKHWleo4ZkFc0uf_kHP-66">
          <mxGeometry relative="1" as="geometry">
            <mxPoint x="857.690774778509" y="1311.7358162348676" as="sourcePoint" />
            <mxPoint x="910.7880827278686" y="1289.0047669088524" as="targetPoint" />
          </mxGeometry>
        </mxCell>
        <mxCell id="PMKHWleo4ZkFc0uf_kHP-68" value="&lt;h1&gt;设置虚拟父节点（变种1）:&amp;nbsp;&lt;/h1&gt;&lt;p&gt;1. view a 不是一个 &lt;b&gt;&lt;font color=&quot;#cc00cc&quot;&gt;节点&lt;/font&gt;&lt;/b&gt;，但是该view的子view中有节点（可能是子view的子view）&lt;/p&gt;&lt;p&gt;2. 比如 &lt;b&gt;&lt;font color=&quot;#cc00cc&quot;&gt;把 Title 当做一个普通view&lt;/font&gt;&lt;/b&gt;，不再是一个 &lt;b&gt;节点&lt;/b&gt;&lt;/p&gt;&lt;p&gt;3. 可直接设置 view a 的虚拟父节点，等于 Content 的虚拟父节点&lt;/p&gt;" style="text;html=1;strokeColor=default;fillColor=none;spacing=5;spacingTop=-20;whiteSpace=wrap;overflow=hidden;rounded=0;dashed=1;" vertex="1" parent="1">
          <mxGeometry x="30" y="1180" width="460" height="130" as="geometry" />
        </mxCell>
        <mxCell id="PMKHWleo4ZkFc0uf_kHP-69" value="Title" style="ellipse;whiteSpace=wrap;html=1;aspect=fixed;fillColor=#bac8d3;strokeColor=#23445d;" vertex="1" parent="1">
          <mxGeometry x="792" y="1309" width="50" height="50" as="geometry" />
        </mxCell>
        <mxCell id="PMKHWleo4ZkFc0uf_kHP-71" style="edgeStyle=none;rounded=0;orthogonalLoop=1;jettySize=auto;html=1;dashed=1;" edge="1" parent="1" source="PMKHWleo4ZkFc0uf_kHP-72" target="PMKHWleo4ZkFc0uf_kHP-74">
          <mxGeometry relative="1" as="geometry" />
        </mxCell>
        <mxCell id="PMKHWleo4ZkFc0uf_kHP-72" value="Content" style="ellipse;whiteSpace=wrap;html=1;aspect=fixed;fillColor=#1ba1e2;strokeColor=#006EAF;fontColor=#ffffff;" vertex="1" parent="1">
          <mxGeometry x="1233.25" y="1660" width="50" height="50" as="geometry" />
        </mxCell>
        <mxCell id="PMKHWleo4ZkFc0uf_kHP-74" value="虚拟" style="ellipse;whiteSpace=wrap;html=1;aspect=fixed;fillColor=#b0e3e6;strokeColor=#0e8088;dashed=1;" vertex="1" parent="1">
          <mxGeometry x="1043.25" y="1590" width="50" height="50" as="geometry" />
        </mxCell>
        <mxCell id="PMKHWleo4ZkFc0uf_kHP-75" style="edgeStyle=none;rounded=0;orthogonalLoop=1;jettySize=auto;html=1;" edge="1" parent="1" source="PMKHWleo4ZkFc0uf_kHP-76" target="PMKHWleo4ZkFc0uf_kHP-74">
          <mxGeometry relative="1" as="geometry">
            <mxPoint x="809.7514981650597" y="1771.8168198499461" as="targetPoint" />
          </mxGeometry>
        </mxCell>
        <mxCell id="PMKHWleo4ZkFc0uf_kHP-76" value="item 0" style="ellipse;whiteSpace=wrap;html=1;aspect=fixed;fillColor=#1ba1e2;strokeColor=#006EAF;fontColor=#ffffff;" vertex="1" parent="1">
          <mxGeometry x="693.25" y="1830" width="50" height="50" as="geometry" />
        </mxCell>
        <mxCell id="PMKHWleo4ZkFc0uf_kHP-77" style="edgeStyle=none;rounded=0;orthogonalLoop=1;jettySize=auto;html=1;" edge="1" parent="1" source="PMKHWleo4ZkFc0uf_kHP-78" target="PMKHWleo4ZkFc0uf_kHP-74">
          <mxGeometry relative="1" as="geometry">
            <mxPoint x="828.25" y="1780" as="targetPoint" />
          </mxGeometry>
        </mxCell>
        <mxCell id="PMKHWleo4ZkFc0uf_kHP-78" value="item 1" style="ellipse;whiteSpace=wrap;html=1;aspect=fixed;fillColor=#1ba1e2;strokeColor=#006EAF;fontColor=#ffffff;" vertex="1" parent="1">
          <mxGeometry x="803.25" y="1830" width="50" height="50" as="geometry" />
        </mxCell>
        <mxCell id="PMKHWleo4ZkFc0uf_kHP-79" style="edgeStyle=none;rounded=0;orthogonalLoop=1;jettySize=auto;html=1;" edge="1" parent="1" source="PMKHWleo4ZkFc0uf_kHP-80" target="PMKHWleo4ZkFc0uf_kHP-74">
          <mxGeometry relative="1" as="geometry">
            <mxPoint x="847.4555319899318" y="1771.0046099916099" as="targetPoint" />
          </mxGeometry>
        </mxCell>
        <mxCell id="PMKHWleo4ZkFc0uf_kHP-80" value="moreBtn" style="ellipse;whiteSpace=wrap;html=1;aspect=fixed;fillColor=#1ba1e2;strokeColor=#006EAF;fontColor=#ffffff;" vertex="1" parent="1">
          <mxGeometry x="923.25" y="1830" width="50" height="50" as="geometry" />
        </mxCell>
        <mxCell id="PMKHWleo4ZkFc0uf_kHP-81" style="edgeStyle=none;rounded=0;orthogonalLoop=1;jettySize=auto;html=1;" edge="1" parent="1" source="PMKHWleo4ZkFc0uf_kHP-82" target="PMKHWleo4ZkFc0uf_kHP-72">
          <mxGeometry relative="1" as="geometry" />
        </mxCell>
        <mxCell id="PMKHWleo4ZkFc0uf_kHP-82" value="ScrollView" style="ellipse;whiteSpace=wrap;html=1;aspect=fixed;fillColor=#1ba1e2;strokeColor=#006EAF;fontColor=#ffffff;" vertex="1" parent="1">
          <mxGeometry x="1233.25" y="1760" width="50" height="50" as="geometry" />
        </mxCell>
        <mxCell id="PMKHWleo4ZkFc0uf_kHP-83" style="edgeStyle=none;rounded=0;orthogonalLoop=1;jettySize=auto;html=1;" edge="1" parent="1" source="PMKHWleo4ZkFc0uf_kHP-84" target="PMKHWleo4ZkFc0uf_kHP-82">
          <mxGeometry relative="1" as="geometry" />
        </mxCell>
        <mxCell id="PMKHWleo4ZkFc0uf_kHP-84" value="R_0" style="ellipse;whiteSpace=wrap;html=1;aspect=fixed;fillColor=#1ba1e2;strokeColor=#006EAF;fontColor=#ffffff;" vertex="1" parent="1">
          <mxGeometry x="1103.25" y="1850" width="50" height="50" as="geometry" />
        </mxCell>
        <mxCell id="PMKHWleo4ZkFc0uf_kHP-85" style="edgeStyle=none;rounded=0;orthogonalLoop=1;jettySize=auto;html=1;" edge="1" parent="1" source="PMKHWleo4ZkFc0uf_kHP-86" target="PMKHWleo4ZkFc0uf_kHP-82">
          <mxGeometry relative="1" as="geometry" />
        </mxCell>
        <mxCell id="PMKHWleo4ZkFc0uf_kHP-86" value="R_1" style="ellipse;whiteSpace=wrap;html=1;aspect=fixed;fillColor=#1ba1e2;strokeColor=#006EAF;fontColor=#ffffff;" vertex="1" parent="1">
          <mxGeometry x="1233.25" y="1850" width="50" height="50" as="geometry" />
        </mxCell>
        <mxCell id="PMKHWleo4ZkFc0uf_kHP-87" style="edgeStyle=none;rounded=0;orthogonalLoop=1;jettySize=auto;html=1;" edge="1" parent="1" source="PMKHWleo4ZkFc0uf_kHP-88" target="PMKHWleo4ZkFc0uf_kHP-82">
          <mxGeometry relative="1" as="geometry" />
        </mxCell>
        <mxCell id="PMKHWleo4ZkFc0uf_kHP-88" value="R_2" style="ellipse;whiteSpace=wrap;html=1;aspect=fixed;fillColor=#1ba1e2;strokeColor=#006EAF;fontColor=#ffffff;" vertex="1" parent="1">
          <mxGeometry x="1360.25" y="1850" width="50" height="50" as="geometry" />
        </mxCell>
        <mxCell id="PMKHWleo4ZkFc0uf_kHP-92" value="&lt;h1&gt;设置虚拟父节点（变种1 =&amp;gt; 结果）:&amp;nbsp;&lt;/h1&gt;&lt;p&gt;1. 上图构建出的虚拟树，就是该结果&lt;/p&gt;&lt;p&gt;2. &lt;font color=&quot;#cc00cc&quot;&gt;&lt;b&gt;将一个非节点的所有第一层子节点，挂载到虚拟父节点名下&lt;/b&gt;&lt;/font&gt;&lt;/p&gt;" style="text;html=1;strokeColor=default;fillColor=none;spacing=5;spacingTop=-20;whiteSpace=wrap;overflow=hidden;rounded=0;dashed=1;" vertex="1" parent="1">
          <mxGeometry x="30" y="1580" width="460" height="100" as="geometry" />
        </mxCell>
        <mxCell id="PMKHWleo4ZkFc0uf_kHP-93" value="非节点 b" style="ellipse;whiteSpace=wrap;html=1;aspect=fixed;fillColor=#bac8d3;strokeColor=#23445d;" vertex="1" parent="1">
          <mxGeometry x="692" y="1359" width="50" height="50" as="geometry" />
        </mxCell>
        <mxCell id="PMKHWleo4ZkFc0uf_kHP-94" value="" style="edgeStyle=none;rounded=0;orthogonalLoop=1;jettySize=auto;html=1;endArrow=none;" edge="1" parent="1" source="PMKHWleo4ZkFc0uf_kHP-53" target="PMKHWleo4ZkFc0uf_kHP-93">
          <mxGeometry relative="1" as="geometry">
            <mxPoint x="725.4709235415821" y="1417.1528939126229" as="sourcePoint" />
            <mxPoint x="798.5014981650797" y="1350.816819849928" as="targetPoint" />
          </mxGeometry>
        </mxCell>
        <mxCell id="PMKHWleo4ZkFc0uf_kHP-104" style="edgeStyle=none;rounded=0;orthogonalLoop=1;jettySize=auto;html=1;dashed=1;" edge="1" parent="1" source="PMKHWleo4ZkFc0uf_kHP-105" target="PMKHWleo4ZkFc0uf_kHP-107">
          <mxGeometry relative="1" as="geometry" />
        </mxCell>
        <mxCell id="PMKHWleo4ZkFc0uf_kHP-105" value="Content" style="ellipse;whiteSpace=wrap;html=1;aspect=fixed;fillColor=#1ba1e2;strokeColor=#006EAF;fontColor=#ffffff;" vertex="1" parent="1">
          <mxGeometry x="1268.5" y="2250" width="50" height="50" as="geometry" />
        </mxCell>
        <mxCell id="PMKHWleo4ZkFc0uf_kHP-106" style="rounded=0;orthogonalLoop=1;jettySize=auto;html=1;dashed=1;startArrow=none;" edge="1" parent="1" source="PMKHWleo4ZkFc0uf_kHP-122" target="PMKHWleo4ZkFc0uf_kHP-107">
          <mxGeometry relative="1" as="geometry" />
        </mxCell>
        <mxCell id="PMKHWleo4ZkFc0uf_kHP-107" value="虚拟 1" style="ellipse;whiteSpace=wrap;html=1;aspect=fixed;fillColor=#b0e3e6;strokeColor=#0e8088;dashed=1;" vertex="1" parent="1">
          <mxGeometry x="1078.5" y="2180" width="50" height="50" as="geometry" />
        </mxCell>
        <mxCell id="PMKHWleo4ZkFc0uf_kHP-108" style="edgeStyle=none;rounded=0;orthogonalLoop=1;jettySize=auto;html=1;startArrow=none;" edge="1" parent="1" source="PMKHWleo4ZkFc0uf_kHP-125" target="PMKHWleo4ZkFc0uf_kHP-124">
          <mxGeometry relative="1" as="geometry">
            <mxPoint x="845.0014981650797" y="2391.816819849928" as="targetPoint" />
          </mxGeometry>
        </mxCell>
        <mxCell id="PMKHWleo4ZkFc0uf_kHP-109" value="item 0" style="ellipse;whiteSpace=wrap;html=1;aspect=fixed;fillColor=#1ba1e2;strokeColor=#006EAF;fontColor=#ffffff;" vertex="1" parent="1">
          <mxGeometry x="648.5" y="2420" width="50" height="50" as="geometry" />
        </mxCell>
        <mxCell id="PMKHWleo4ZkFc0uf_kHP-110" style="edgeStyle=none;rounded=0;orthogonalLoop=1;jettySize=auto;html=1;" edge="1" parent="1" source="PMKHWleo4ZkFc0uf_kHP-111" target="PMKHWleo4ZkFc0uf_kHP-124">
          <mxGeometry relative="1" as="geometry">
            <mxPoint x="863.5" y="2400" as="targetPoint" />
          </mxGeometry>
        </mxCell>
        <mxCell id="PMKHWleo4ZkFc0uf_kHP-111" value="item 1" style="ellipse;whiteSpace=wrap;html=1;aspect=fixed;fillColor=#1ba1e2;strokeColor=#006EAF;fontColor=#ffffff;" vertex="1" parent="1">
          <mxGeometry x="838.5" y="2420" width="50" height="50" as="geometry" />
        </mxCell>
        <mxCell id="PMKHWleo4ZkFc0uf_kHP-112" style="edgeStyle=none;rounded=0;orthogonalLoop=1;jettySize=auto;html=1;startArrow=none;" edge="1" parent="1" source="PMKHWleo4ZkFc0uf_kHP-127" target="PMKHWleo4ZkFc0uf_kHP-124">
          <mxGeometry relative="1" as="geometry">
            <mxPoint x="882.7055319899091" y="2391.0046099915908" as="targetPoint" />
          </mxGeometry>
        </mxCell>
        <mxCell id="PMKHWleo4ZkFc0uf_kHP-113" value="moreBtn" style="ellipse;whiteSpace=wrap;html=1;aspect=fixed;fillColor=#1ba1e2;strokeColor=#006EAF;fontColor=#ffffff;" vertex="1" parent="1">
          <mxGeometry x="1015.5" y="2420" width="50" height="50" as="geometry" />
        </mxCell>
        <mxCell id="PMKHWleo4ZkFc0uf_kHP-114" style="edgeStyle=none;rounded=0;orthogonalLoop=1;jettySize=auto;html=1;" edge="1" parent="1" source="PMKHWleo4ZkFc0uf_kHP-115" target="PMKHWleo4ZkFc0uf_kHP-105">
          <mxGeometry relative="1" as="geometry" />
        </mxCell>
        <mxCell id="PMKHWleo4ZkFc0uf_kHP-115" value="ScrollView" style="ellipse;whiteSpace=wrap;html=1;aspect=fixed;fillColor=#1ba1e2;strokeColor=#006EAF;fontColor=#ffffff;" vertex="1" parent="1">
          <mxGeometry x="1268.5" y="2350" width="50" height="50" as="geometry" />
        </mxCell>
        <mxCell id="PMKHWleo4ZkFc0uf_kHP-116" style="edgeStyle=none;rounded=0;orthogonalLoop=1;jettySize=auto;html=1;" edge="1" parent="1" source="PMKHWleo4ZkFc0uf_kHP-117" target="PMKHWleo4ZkFc0uf_kHP-115">
          <mxGeometry relative="1" as="geometry" />
        </mxCell>
        <mxCell id="PMKHWleo4ZkFc0uf_kHP-117" value="R_0" style="ellipse;whiteSpace=wrap;html=1;aspect=fixed;fillColor=#1ba1e2;strokeColor=#006EAF;fontColor=#ffffff;" vertex="1" parent="1">
          <mxGeometry x="1138.5" y="2440" width="50" height="50" as="geometry" />
        </mxCell>
        <mxCell id="PMKHWleo4ZkFc0uf_kHP-118" style="edgeStyle=none;rounded=0;orthogonalLoop=1;jettySize=auto;html=1;" edge="1" parent="1" source="PMKHWleo4ZkFc0uf_kHP-119" target="PMKHWleo4ZkFc0uf_kHP-115">
          <mxGeometry relative="1" as="geometry" />
        </mxCell>
        <mxCell id="PMKHWleo4ZkFc0uf_kHP-119" value="R_1" style="ellipse;whiteSpace=wrap;html=1;aspect=fixed;fillColor=#1ba1e2;strokeColor=#006EAF;fontColor=#ffffff;" vertex="1" parent="1">
          <mxGeometry x="1268.5" y="2440" width="50" height="50" as="geometry" />
        </mxCell>
        <mxCell id="PMKHWleo4ZkFc0uf_kHP-120" style="edgeStyle=none;rounded=0;orthogonalLoop=1;jettySize=auto;html=1;" edge="1" parent="1" source="PMKHWleo4ZkFc0uf_kHP-121" target="PMKHWleo4ZkFc0uf_kHP-115">
          <mxGeometry relative="1" as="geometry" />
        </mxCell>
        <mxCell id="PMKHWleo4ZkFc0uf_kHP-121" value="R_2" style="ellipse;whiteSpace=wrap;html=1;aspect=fixed;fillColor=#1ba1e2;strokeColor=#006EAF;fontColor=#ffffff;" vertex="1" parent="1">
          <mxGeometry x="1395.5" y="2440" width="50" height="50" as="geometry" />
        </mxCell>
        <mxCell id="PMKHWleo4ZkFc0uf_kHP-122" value="非节点 a" style="ellipse;whiteSpace=wrap;html=1;aspect=fixed;fillColor=#bac8d3;strokeColor=#23445d;" vertex="1" parent="1">
          <mxGeometry x="938.5" y="2250" width="50" height="50" as="geometry" />
        </mxCell>
        <mxCell id="PMKHWleo4ZkFc0uf_kHP-123" value="" style="rounded=0;orthogonalLoop=1;jettySize=auto;html=1;dashed=1;endArrow=none;startArrow=none;" edge="1" parent="1" source="PMKHWleo4ZkFc0uf_kHP-124" target="PMKHWleo4ZkFc0uf_kHP-122">
          <mxGeometry relative="1" as="geometry">
            <mxPoint x="904.190774778509" y="2322.7358162348673" as="sourcePoint" />
            <mxPoint x="957.2880827278686" y="2300.0047669088526" as="targetPoint" />
          </mxGeometry>
        </mxCell>
        <mxCell id="PMKHWleo4ZkFc0uf_kHP-124" value="Title" style="ellipse;whiteSpace=wrap;html=1;aspect=fixed;fillColor=#bac8d3;strokeColor=#23445d;" vertex="1" parent="1">
          <mxGeometry x="838.5" y="2320" width="50" height="50" as="geometry" />
        </mxCell>
        <mxCell id="PMKHWleo4ZkFc0uf_kHP-125" value="非节点 b" style="ellipse;whiteSpace=wrap;html=1;aspect=fixed;fillColor=#bac8d3;strokeColor=#23445d;" vertex="1" parent="1">
          <mxGeometry x="738.5" y="2370" width="50" height="50" as="geometry" />
        </mxCell>
        <mxCell id="PMKHWleo4ZkFc0uf_kHP-126" value="" style="edgeStyle=none;rounded=0;orthogonalLoop=1;jettySize=auto;html=1;endArrow=none;" edge="1" parent="1" source="PMKHWleo4ZkFc0uf_kHP-109" target="PMKHWleo4ZkFc0uf_kHP-125">
          <mxGeometry relative="1" as="geometry">
            <mxPoint x="771.9709235415821" y="2428.152893912623" as="sourcePoint" />
            <mxPoint x="845.0014981650797" y="2361.816819849928" as="targetPoint" />
          </mxGeometry>
        </mxCell>
        <mxCell id="PMKHWleo4ZkFc0uf_kHP-127" value="虚拟 2" style="ellipse;whiteSpace=wrap;html=1;aspect=fixed;fillColor=#b0e3e6;strokeColor=#0e8088;dashed=1;" vertex="1" parent="1">
          <mxGeometry x="928.5" y="2370" width="50" height="50" as="geometry" />
        </mxCell>
        <mxCell id="PMKHWleo4ZkFc0uf_kHP-129" value="" style="edgeStyle=none;rounded=0;orthogonalLoop=1;jettySize=auto;html=1;endArrow=none;" edge="1" parent="1" source="PMKHWleo4ZkFc0uf_kHP-113" target="PMKHWleo4ZkFc0uf_kHP-127">
          <mxGeometry relative="1" as="geometry">
            <mxPoint x="885.2663609335996" y="2357.297379058531" as="targetPoint" />
            <mxPoint x="1018.6993521395675" y="2432.7635073299507" as="sourcePoint" />
          </mxGeometry>
        </mxCell>
        <mxCell id="PMKHWleo4ZkFc0uf_kHP-130" value="&lt;h1&gt;设置虚拟父节点（特例）:&amp;nbsp;&lt;/h1&gt;&lt;p&gt;1. 一个节点，比如 moreBtn ，&lt;font color=&quot;#cc0066&quot;&gt;&lt;b&gt;向上查找，如果遇到了多个虚拟父节点，只取第一个&lt;/b&gt;&lt;/font&gt;&lt;/p&gt;&lt;p&gt;2. &lt;b&gt;&lt;font color=&quot;#cc0066&quot;&gt;尽量不要这么设置，一般这样都不太符合预期&lt;/font&gt;&lt;/b&gt;&lt;/p&gt;" style="text;html=1;strokeColor=default;fillColor=none;spacing=5;spacingTop=-20;whiteSpace=wrap;overflow=hidden;rounded=0;dashed=1;" vertex="1" parent="1">
          <mxGeometry x="30" y="2170" width="460" height="100" as="geometry" />
        </mxCell>
        <mxCell id="PMKHWleo4ZkFc0uf_kHP-136" value="" style="rounded=0;whiteSpace=wrap;html=1;dashed=1;strokeColor=none;fillColor=#f5f5f5;fontColor=#333333;" vertex="1" parent="1">
          <mxGeometry x="600" y="2600" width="870" height="370" as="geometry" />
        </mxCell>
        <mxCell id="PMKHWleo4ZkFc0uf_kHP-137" style="edgeStyle=none;rounded=0;orthogonalLoop=1;jettySize=auto;html=1;dashed=1;" edge="1" parent="1" source="PMKHWleo4ZkFc0uf_kHP-138" target="PMKHWleo4ZkFc0uf_kHP-140">
          <mxGeometry relative="1" as="geometry" />
        </mxCell>
        <mxCell id="PMKHWleo4ZkFc0uf_kHP-138" value="Content" style="ellipse;whiteSpace=wrap;html=1;aspect=fixed;fillColor=#1ba1e2;strokeColor=#006EAF;fontColor=#ffffff;" vertex="1" parent="1">
          <mxGeometry x="1274" y="2680" width="50" height="50" as="geometry" />
        </mxCell>
        <mxCell id="PMKHWleo4ZkFc0uf_kHP-140" value="虚拟 1" style="ellipse;whiteSpace=wrap;html=1;aspect=fixed;fillColor=#b0e3e6;strokeColor=#0e8088;dashed=1;" vertex="1" parent="1">
          <mxGeometry x="1084" y="2610" width="50" height="50" as="geometry" />
        </mxCell>
        <mxCell id="PMKHWleo4ZkFc0uf_kHP-141" style="edgeStyle=none;rounded=0;orthogonalLoop=1;jettySize=auto;html=1;startArrow=none;" edge="1" parent="1" source="PMKHWleo4ZkFc0uf_kHP-142" target="PMKHWleo4ZkFc0uf_kHP-140">
          <mxGeometry relative="1" as="geometry">
            <mxPoint x="846.6393202250024" y="2786.180339887499" as="targetPoint" />
            <mxPoint x="791.418606642224" y="2813.936272046695" as="sourcePoint" />
          </mxGeometry>
        </mxCell>
        <mxCell id="PMKHWleo4ZkFc0uf_kHP-142" value="item 0" style="ellipse;whiteSpace=wrap;html=1;aspect=fixed;fillColor=#1ba1e2;strokeColor=#006EAF;fontColor=#ffffff;" vertex="1" parent="1">
          <mxGeometry x="842" y="2850" width="50" height="50" as="geometry" />
        </mxCell>
        <mxCell id="PMKHWleo4ZkFc0uf_kHP-143" style="edgeStyle=none;rounded=0;orthogonalLoop=1;jettySize=auto;html=1;" edge="1" parent="1" source="PMKHWleo4ZkFc0uf_kHP-144" target="PMKHWleo4ZkFc0uf_kHP-140">
          <mxGeometry relative="1" as="geometry">
            <mxPoint x="869" y="2800" as="targetPoint" />
          </mxGeometry>
        </mxCell>
        <mxCell id="PMKHWleo4ZkFc0uf_kHP-144" value="item 1" style="ellipse;whiteSpace=wrap;html=1;aspect=fixed;fillColor=#1ba1e2;strokeColor=#006EAF;fontColor=#ffffff;" vertex="1" parent="1">
          <mxGeometry x="993.25" y="2850" width="50" height="50" as="geometry" />
        </mxCell>
        <mxCell id="PMKHWleo4ZkFc0uf_kHP-146" value="moreBtn" style="ellipse;whiteSpace=wrap;html=1;aspect=fixed;fillColor=#1ba1e2;strokeColor=#006EAF;fontColor=#ffffff;" vertex="1" parent="1">
          <mxGeometry x="738.5" y="2790" width="50" height="50" as="geometry" />
        </mxCell>
        <mxCell id="PMKHWleo4ZkFc0uf_kHP-147" style="edgeStyle=none;rounded=0;orthogonalLoop=1;jettySize=auto;html=1;" edge="1" parent="1" source="PMKHWleo4ZkFc0uf_kHP-148" target="PMKHWleo4ZkFc0uf_kHP-138">
          <mxGeometry relative="1" as="geometry" />
        </mxCell>
        <mxCell id="PMKHWleo4ZkFc0uf_kHP-148" value="ScrollView" style="ellipse;whiteSpace=wrap;html=1;aspect=fixed;fillColor=#1ba1e2;strokeColor=#006EAF;fontColor=#ffffff;" vertex="1" parent="1">
          <mxGeometry x="1274" y="2780" width="50" height="50" as="geometry" />
        </mxCell>
        <mxCell id="PMKHWleo4ZkFc0uf_kHP-149" style="edgeStyle=none;rounded=0;orthogonalLoop=1;jettySize=auto;html=1;" edge="1" parent="1" source="PMKHWleo4ZkFc0uf_kHP-150" target="PMKHWleo4ZkFc0uf_kHP-148">
          <mxGeometry relative="1" as="geometry" />
        </mxCell>
        <mxCell id="PMKHWleo4ZkFc0uf_kHP-150" value="R_0" style="ellipse;whiteSpace=wrap;html=1;aspect=fixed;fillColor=#1ba1e2;strokeColor=#006EAF;fontColor=#ffffff;" vertex="1" parent="1">
          <mxGeometry x="1144" y="2870" width="50" height="50" as="geometry" />
        </mxCell>
        <mxCell id="PMKHWleo4ZkFc0uf_kHP-151" style="edgeStyle=none;rounded=0;orthogonalLoop=1;jettySize=auto;html=1;" edge="1" parent="1" source="PMKHWleo4ZkFc0uf_kHP-152" target="PMKHWleo4ZkFc0uf_kHP-148">
          <mxGeometry relative="1" as="geometry" />
        </mxCell>
        <mxCell id="PMKHWleo4ZkFc0uf_kHP-152" value="R_1" style="ellipse;whiteSpace=wrap;html=1;aspect=fixed;fillColor=#1ba1e2;strokeColor=#006EAF;fontColor=#ffffff;" vertex="1" parent="1">
          <mxGeometry x="1274" y="2870" width="50" height="50" as="geometry" />
        </mxCell>
        <mxCell id="PMKHWleo4ZkFc0uf_kHP-153" style="edgeStyle=none;rounded=0;orthogonalLoop=1;jettySize=auto;html=1;" edge="1" parent="1" source="PMKHWleo4ZkFc0uf_kHP-154" target="PMKHWleo4ZkFc0uf_kHP-148">
          <mxGeometry relative="1" as="geometry" />
        </mxCell>
        <mxCell id="PMKHWleo4ZkFc0uf_kHP-154" value="R_2" style="ellipse;whiteSpace=wrap;html=1;aspect=fixed;fillColor=#1ba1e2;strokeColor=#006EAF;fontColor=#ffffff;" vertex="1" parent="1">
          <mxGeometry x="1401" y="2870" width="50" height="50" as="geometry" />
        </mxCell>
        <mxCell id="PMKHWleo4ZkFc0uf_kHP-160" value="虚拟 2" style="ellipse;whiteSpace=wrap;html=1;aspect=fixed;fillColor=#b0e3e6;strokeColor=#0e8088;dashed=1;" vertex="1" parent="1">
          <mxGeometry x="738.5" y="2620" width="50" height="50" as="geometry" />
        </mxCell>
        <mxCell id="PMKHWleo4ZkFc0uf_kHP-161" value="" style="edgeStyle=none;rounded=0;orthogonalLoop=1;jettySize=auto;html=1;endArrow=none;" edge="1" parent="1" source="PMKHWleo4ZkFc0uf_kHP-146" target="PMKHWleo4ZkFc0uf_kHP-160">
          <mxGeometry relative="1" as="geometry">
            <mxPoint x="890.7663609335996" y="2787.297379058531" as="targetPoint" />
            <mxPoint x="1024.1993521395675" y="2862.7635073299507" as="sourcePoint" />
          </mxGeometry>
        </mxCell>
        <mxCell id="PMKHWleo4ZkFc0uf_kHP-163" value="&lt;h1&gt;设置虚拟父节点（特例 =&amp;gt; 结果）:&amp;nbsp;&lt;/h1&gt;&lt;p&gt;1. 上图就变成了这个结果， &lt;b&gt;&lt;font color=&quot;#cc0066&quot;&gt;moreBtn 单独挂载了 虚拟父节点2 名下&lt;/font&gt;&lt;/b&gt;&lt;/p&gt;&lt;p&gt;2. &lt;font color=&quot;#cc0066&quot;&gt;&lt;b&gt;而且虚拟父节点2跟1是平级&lt;/b&gt;&lt;/font&gt;&lt;/p&gt;" style="text;html=1;strokeColor=default;fillColor=none;spacing=5;spacingTop=-20;whiteSpace=wrap;overflow=hidden;rounded=0;dashed=1;" vertex="1" parent="1">
          <mxGeometry x="30" y="2600" width="460" height="100" as="geometry" />
        </mxCell>
      </root>
    </mxGraphModel>
  </diagram>
</mxfile>
